<?xml version="1.0" encoding="utf-8"?>
<!-- Generator: Adobe Illustrator 24.2.3, SVG Export Plug-In . SVG Version: 6.00 Build 0)  -->
<svg version="1.1" id="logo" xmlns="http://www.w3.org/2000/svg" xmlns:xlink="http://www.w3.org/1999/xlink" x="0px" y="0px"
	 viewBox="0 0 400 400" style="enable-background:new 0 0 400 400;" xml:space="preserve">
<style type="text/css">
	.st0{fill:#222222;}
</style>
<path id="paper-group" class="st0" d="M302.4,107.1h-58.6c-1.3,0-2.4-1.1-2.4-2.4V47.2c0-1.3,1.1-2.4,2.4-2.4h13.5
	c1.3,0,2.4,1.1,2.4,2.4v41.6h42.8c1.3,0,2.4,1.1,2.4,2.4v13.5C304.8,106,303.7,107.1,302.4,107.1z M252.7,313.8l-9.5,9.5
	c-0.9,0.9-0.9,2.4,0,3.4l21.1,21.1H103.8V84.3l20.7,20.7c0.9,0.9,2.4,0.9,3.4,0l9.5-9.5c0.9-0.9,0.9-2.4,0-3.4L96.8,51.5
	c-0.9-0.9-2.4-0.9-3.4,0L52,92.9c-0.9,0.9-0.9,2.4,0,3.4l9.5,9.5c0.9,0.9,2.4,0.9,3.4,0l20.7-20.7v278.6c0,1.3,1.1,2.4,2.4,2.4
	h176.4L244,386.4c-0.9,0.9-0.9,2.4,0,3.4l9.5,9.5c0.9,0.9,2.4,0.9,3.4,0l40.6-40.6c0.9-0.9,0.9-2.4,0-3.4l-41.5-41.5
	C255.1,312.9,253.6,312.9,252.7,313.8z M349.8,354.6V85.7L262.8,0H94.7v18.2h160.6l76.2,75.1v261.3c0,1.3,1.1,2.4,2.4,2.4h13.5
	C348.7,357,349.8,355.9,349.8,354.6z"/>
</svg>
